{
	"asset":{
		"generator":"Khronos glTF Blender I/O v4.0.44",
		"version":"2.0"
	},
	"scene":0,
	"scenes":[
		{
			"name":"Scene",
			"nodes":[
				0,
				1
			]
		}
	],
	"nodes":[
		{
			"name":"RootNode"
		},
		{
			"mesh":0,
			"name":"mesh_char_133",
			"rotation":[
				0.7071068286895752,
				0,
				0,
				0.7071068286895752
			]
		}
	],
	"materials":[
		{
			"doubleSided":true,
			"name":"_047_David.001",
			"pbrMetallicRoughness":{
				"baseColorTexture":{
					"index":0
				},
				"metallicFactor":0,
				"roughnessFactor":0.5527864098548889
			}
		}
	],
	"meshes":[
		{
			"extras":{
				"targetNames":[
					"vrc.blink_left",
					"vrc.blink_right",
					"vrc.lowerlid_left",
					"vrc.lowerlid_right",
					"vrc.v_aa",
					"vrc.v_ch",
					"vrc.v_dd",
					"vrc.v_ee",
					"vrc.v_ff",
					"vrc.v_ih",
					"vrc.v_kk",
					"vrc.v_nn",
					"vrc.v_oh",
					"vrc.v_ou",
					"vrc.v_pp",
					"vrc.v_rr",
					"vrc.v_sil",
					"vrc.v_ss",
					"vrc.v_th"
				]
			},
			"name":"mesh_char_133.001",
			"primitives":[
				{
					"attributes":{
						"POSITION":0,
						"NORMAL":1,
						"TEXCOORD_0":2
					},
					"indices":3,
					"material":0,
					"targets":[
						{
							"POSITION":4,
							"NORMAL":5
						},
						{
							"POSITION":6,
							"NORMAL":7
						},
						{
							"POSITION":8,
							"NORMAL":9
						},
						{
							"POSITION":10,
							"NORMAL":11
						},
						{
							"POSITION":12,
							"NORMAL":13
						},
						{
							"POSITION":14,
							"NORMAL":15
						},
						{
							"POSITION":16,
							"NORMAL":17
						},
						{
							"POSITION":18,
							"NORMAL":19
						},
						{
							"POSITION":20,
							"NORMAL":21
						},
						{
							"POSITION":22,
							"NORMAL":23
						},
						{
							"POSITION":24,
							"NORMAL":25
						},
						{
							"POSITION":26,
							"NORMAL":27
						},
						{
							"POSITION":28,
							"NORMAL":29
						},
						{
							"POSITION":30,
							"NORMAL":31
						},
						{
							"POSITION":32,
							"NORMAL":33
						},
						{
							"POSITION":34,
							"NORMAL":35
						},
						{
							"POSITION":36,
							"NORMAL":37
						},
						{
							"POSITION":38,
							"NORMAL":39
						},
						{
							"POSITION":40,
							"NORMAL":41
						}
					]
				}
			],
			"weights":[
				0,
				0,
				0,
				0,
				0,
				0,
				0,
				0,
				0,
				0,
				0,
				0,
				0,
				0,
				0,
				0,
				0,
				0,
				0
			]
		}
	],
	"textures":[
		{
			"sampler":0,
			"source":0
		}
	],
	"images":[
		{
			"mimeType":"image/png",
			"name":"100Avatars_047_David",
			"uri":"100Avatars_047_David.png"
		}
	],
	"accessors":[
		{
			"bufferView":0,
			"componentType":5126,
			"count":2540,
			"max":[
				0.8358666300773621,
				2.1585161685943604,
				0.0028238038066774607
			],
			"min":[
				-1.0225766897201538,
				-2.1498525142669678,
				-5.253514766693115
			],
			"type":"VEC3"
		},
		{
			"bufferView":1,
			"componentType":5126,
			"count":2540,
			"type":"VEC3"
		},
		{
			"bufferView":2,
			"componentType":5126,
			"count":2540,
			"type":"VEC2"
		},
		{
			"bufferView":3,
			"componentType":5123,
			"count":11052,
			"type":"SCALAR"
		},
		{
			"componentType":5126,
			"count":2540,
			"max":[
				5.960464477539063e-08,
				0.00991162657737732,
				0.04821038246154785
			],
			"min":[
				-5.960464477539063e-08,
				-0.00991162657737732,
				-0.04459118843078613
			],
			"sparse":{
				"count":114,
				"indices":{
					"bufferView":4,
					"componentType":5123
				},
				"values":{
					"bufferView":5
				}
			},
			"type":"VEC3"
		},
		{
			"bufferView":6,
			"componentType":5126,
			"count":2540,
			"type":"VEC3"
		},
		{
			"componentType":5126,
			"count":2540,
			"max":[
				5.960464477539063e-08,
				0.009911596775054932,
				0.04821038246154785
			],
			"min":[
				-5.960464477539063e-08,
				-0.009911656379699707,
				-0.04459118843078613
			],
			"sparse":{
				"count":114,
				"indices":{
					"bufferView":7,
					"componentType":5123
				},
				"values":{
					"bufferView":8
				}
			},
			"type":"VEC3"
		},
		{
			"bufferView":9,
			"componentType":5126,
			"count":2540,
			"type":"VEC3"
		},
		{
			"componentType":5126,
			"count":2540,
			"max":[
				5.960464477539063e-08,
				0.03468772768974304,
				0.015051126480102539
			],
			"min":[
				0,
				-0.03468766808509827,
				-0.14316534996032715
			],
			"sparse":{
				"count":92,
				"indices":{
					"bufferView":10,
					"componentType":5123
				},
				"values":{
					"bufferView":11
				}
			},
			"type":"VEC3"
		},
		{
			"bufferView":12,
			"componentType":5126,
			"count":2540,
			"type":"VEC3"
		},
		{
			"componentType":5126,
			"count":2540,
			"max":[
				5.960464477539063e-08,
				0.03468763828277588,
				0.015051126480102539
			],
			"min":[
				0,
				-0.03468772768974304,
				-0.14316534996032715
			],
			"sparse":{
				"count":92,
				"indices":{
					"bufferView":13,
					"componentType":5123
				},
				"values":{
					"bufferView":14
				}
			},
			"type":"VEC3"
		},
		{
			"bufferView":15,
			"componentType":5126,
			"count":2540,
			"type":"VEC3"
		},
		{
			"componentType":5126,
			"count":2540,
			"max":[
				0.02589118480682373,
				1.4901161193847656e-08,
				0.07810783386230469
			],
			"min":[
				-5.960464477539063e-08,
				0,
				0
			],
			"sparse":{
				"count":104,
				"indices":{
					"bufferView":16,
					"componentType":5123
				},
				"values":{
					"bufferView":17
				}
			},
			"type":"VEC3"
		},
		{
			"bufferView":18,
			"componentType":5126,
			"count":2540,
			"type":"VEC3"
		},
		{
			"componentType":5126,
			"count":2540,
			"max":[
				0.02589118480682373,
				1.4901161193847656e-08,
				0.06709837913513184
			],
			"min":[
				0,
				0,
				0
			],
			"sparse":{
				"count":104,
				"indices":{
					"bufferView":19,
					"componentType":5123
				},
				"values":{
					"bufferView":20
				}
			},
			"type":"VEC3"
		},
		{
			"bufferView":21,
			"componentType":5126,
			"count":2540,
			"type":"VEC3"
		},
		{
			"componentType":5126,
			"count":2540,
			"max":[
				0.02589118480682373,
				1.4901161193847656e-08,
				0.06709837913513184
			],
			"min":[
				0,
				0,
				-0.046477556228637695
			],
			"sparse":{
				"count":107,
				"indices":{
					"bufferView":22,
					"componentType":5123
				},
				"values":{
					"bufferView":23
				}
			},
			"type":"VEC3"
		},
		{
			"bufferView":24,
			"componentType":5126,
			"count":2540,
			"type":"VEC3"
		},
		{
			"componentType":5126,
			"count":2540,
			"max":[
				0.02589118480682373,
				1.4901161193847656e-08,
				0.07810783386230469
			],
			"min":[
				-5.960464477539063e-08,
				0,
				0
			],
			"sparse":{
				"count":104,
				"indices":{
					"bufferView":25,
					"componentType":5123
				},
				"values":{
					"bufferView":26
				}
			},
			"type":"VEC3"
		},
		{
			"bufferView":27,
			"componentType":5126,
			"count":2540,
			"type":"VEC3"
		},
		{
			"componentType":5126,
			"count":2540,
			"max":[
				0.039117395877838135,
				0.09715193510055542,
				0.03455615043640137
			],
			"min":[
				-0.0065934062004089355,
				-0.09715189039707184,
				-0.0008022785186767578
			],
			"sparse":{
				"count":168,
				"indices":{
					"bufferView":28,
					"componentType":5123
				},
				"values":{
					"bufferView":29
				}
			},
			"type":"VEC3"
		},
		{
			"bufferView":30,
			"componentType":5126,
			"count":2540,
			"type":"VEC3"
		},
		{
			"componentType":5126,
			"count":2540,
			"max":[
				0.02589118480682373,
				1.4901161193847656e-08,
				0.07810783386230469
			],
			"min":[
				-5.960464477539063e-08,
				0,
				0
			],
			"sparse":{
				"count":104,
				"indices":{
					"bufferView":31,
					"componentType":5123
				},
				"values":{
					"bufferView":32
				}
			},
			"type":"VEC3"
		},
		{
			"bufferView":33,
			"componentType":5126,
			"count":2540,
			"type":"VEC3"
		},
		{
			"componentType":5126,
			"count":2540,
			"max":[
				0.02589118480682373,
				1.4901161193847656e-08,
				0.06709837913513184
			],
			"min":[
				0,
				0,
				-0.046477556228637695
			],
			"sparse":{
				"count":107,
				"indices":{
					"bufferView":34,
					"componentType":5123
				},
				"values":{
					"bufferView":35
				}
			},
			"type":"VEC3"
		},
		{
			"bufferView":36,
			"componentType":5126,
			"count":2540,
			"type":"VEC3"
		},
		{
			"componentType":5126,
			"count":2540,
			"max":[
				0.02589118480682373,
				1.4901161193847656e-08,
				0.06709837913513184
			],
			"min":[
				0,
				0,
				-0.046477556228637695
			],
			"sparse":{
				"count":107,
				"indices":{
					"bufferView":37,
					"componentType":5123
				},
				"values":{
					"bufferView":38
				}
			},
			"type":"VEC3"
		},
		{
			"bufferView":39,
			"componentType":5126,
			"count":2540,
			"type":"VEC3"
		},
		{
			"componentType":5126,
			"count":2540,
			"max":[
				0.02589118480682373,
				0.12305227667093277,
				0.21713519096374512
			],
			"min":[
				-0.047094523906707764,
				-0.12305223941802979,
				-0.059957265853881836
			],
			"sparse":{
				"count":161,
				"indices":{
					"bufferView":40,
					"componentType":5123
				},
				"values":{
					"bufferView":41
				}
			},
			"type":"VEC3"
		},
		{
			"bufferView":42,
			"componentType":5126,
			"count":2540,
			"type":"VEC3"
		},
		{
			"componentType":5126,
			"count":2540,
			"max":[
				0.04108065366744995,
				0.1647152304649353,
				0.12548518180847168
			],
			"min":[
				-0.023177802562713623,
				-0.16471520066261292,
				-0.02422332763671875
			],
			"sparse":{
				"count":161,
				"indices":{
					"bufferView":43,
					"componentType":5123
				},
				"values":{
					"bufferView":44
				}
			},
			"type":"VEC3"
		},
		{
			"bufferView":45,
			"componentType":5126,
			"count":2540,
			"type":"VEC3"
		},
		{
			"componentType":5126,
			"count":2540,
			"max":[
				0.039117395877838135,
				0.09715193510055542,
				0.03455615043640137
			],
			"min":[
				-0.0065934062004089355,
				-0.09715189039707184,
				-0.0008022785186767578
			],
			"sparse":{
				"count":168,
				"indices":{
					"bufferView":46,
					"componentType":5123
				},
				"values":{
					"bufferView":47
				}
			},
			"type":"VEC3"
		},
		{
			"bufferView":48,
			"componentType":5126,
			"count":2540,
			"type":"VEC3"
		},
		{
			"componentType":5126,
			"count":2540,
			"max":[
				0.02589118480682373,
				1.4901161193847656e-08,
				0.06709837913513184
			],
			"min":[
				0,
				0,
				-0.046477556228637695
			],
			"sparse":{
				"count":151,
				"indices":{
					"bufferView":49,
					"componentType":5123
				},
				"values":{
					"bufferView":50
				}
			},
			"type":"VEC3"
		},
		{
			"bufferView":51,
			"componentType":5126,
			"count":2540,
			"type":"VEC3"
		},
		{
			"componentType":5126,
			"count":2540,
			"max":[
				0.025281667709350586,
				1.4901161193847656e-08,
				0
			],
			"min":[
				0,
				0,
				0
			],
			"sparse":{
				"count":84,
				"indices":{
					"bufferView":52,
					"componentType":5121
				},
				"values":{
					"bufferView":53
				}
			},
			"type":"VEC3"
		},
		{
			"bufferView":54,
			"componentType":5126,
			"count":2540,
			"type":"VEC3"
		},
		{
			"componentType":5126,
			"count":2540,
			"max":[
				0.02589118480682373,
				1.4901161193847656e-08,
				0.06709837913513184
			],
			"min":[
				0,
				0,
				-0.046477556228637695
			],
			"sparse":{
				"count":107,
				"indices":{
					"bufferView":55,
					"componentType":5123
				},
				"values":{
					"bufferView":56
				}
			},
			"type":"VEC3"
		},
		{
			"bufferView":57,
			"componentType":5126,
			"count":2540,
			"type":"VEC3"
		},
		{
			"componentType":5126,
			"count":2540,
			"max":[
				0.039117395877838135,
				0.09715193510055542,
				0.03455615043640137
			],
			"min":[
				-0.0065934062004089355,
				-0.09715189039707184,
				-0.0008022785186767578
			],
			"sparse":{
				"count":168,
				"indices":{
					"bufferView":58,
					"componentType":5123
				},
				"values":{
					"bufferView":59
				}
			},
			"type":"VEC3"
		},
		{
			"bufferView":60,
			"componentType":5126,
			"count":2540,
			"type":"VEC3"
		}
	],
	"bufferViews":[
		{
			"buffer":0,
			"byteLength":30480,
			"byteOffset":0,
			"target":34962
		},
		{
			"buffer":0,
			"byteLength":30480,
			"byteOffset":30480,
			"target":34962
		},
		{
			"buffer":0,
			"byteLength":20320,
			"byteOffset":60960,
			"target":34962
		},
		{
			"buffer":0,
			"byteLength":22104,
			"byteOffset":81280,
			"target":34963
		},
		{
			"buffer":0,
			"byteLength":228,
			"byteOffset":103384
		},
		{
			"buffer":0,
			"byteLength":1368,
			"byteOffset":103612
		},
		{
			"buffer":0,
			"byteLength":30480,
			"byteOffset":104980,
			"target":34962
		},
		{
			"buffer":0,
			"byteLength":228,
			"byteOffset":135460
		},
		{
			"buffer":0,
			"byteLength":1368,
			"byteOffset":135688
		},
		{
			"buffer":0,
			"byteLength":30480,
			"byteOffset":137056,
			"target":34962
		},
		{
			"buffer":0,
			"byteLength":184,
			"byteOffset":167536
		},
		{
			"buffer":0,
			"byteLength":1104,
			"byteOffset":167720
		},
		{
			"buffer":0,
			"byteLength":30480,
			"byteOffset":168824,
			"target":34962
		},
		{
			"buffer":0,
			"byteLength":184,
			"byteOffset":199304
		},
		{
			"buffer":0,
			"byteLength":1104,
			"byteOffset":199488
		},
		{
			"buffer":0,
			"byteLength":30480,
			"byteOffset":200592,
			"target":34962
		},
		{
			"buffer":0,
			"byteLength":208,
			"byteOffset":231072
		},
		{
			"buffer":0,
			"byteLength":1248,
			"byteOffset":231280
		},
		{
			"buffer":0,
			"byteLength":30480,
			"byteOffset":232528,
			"target":34962
		},
		{
			"buffer":0,
			"byteLength":208,
			"byteOffset":263008
		},
		{
			"buffer":0,
			"byteLength":1248,
			"byteOffset":263216
		},
		{
			"buffer":0,
			"byteLength":30480,
			"byteOffset":264464,
			"target":34962
		},
		{
			"buffer":0,
			"byteLength":214,
			"byteOffset":294944
		},
		{
			"buffer":0,
			"byteLength":1284,
			"byteOffset":295160
		},
		{
			"buffer":0,
			"byteLength":30480,
			"byteOffset":296444,
			"target":34962
		},
		{
			"buffer":0,
			"byteLength":208,
			"byteOffset":326924
		},
		{
			"buffer":0,
			"byteLength":1248,
			"byteOffset":327132
		},
		{
			"buffer":0,
			"byteLength":30480,
			"byteOffset":328380,
			"target":34962
		},
		{
			"buffer":0,
			"byteLength":336,
			"byteOffset":358860
		},
		{
			"buffer":0,
			"byteLength":2016,
			"byteOffset":359196
		},
		{
			"buffer":0,
			"byteLength":30480,
			"byteOffset":361212,
			"target":34962
		},
		{
			"buffer":0,
			"byteLength":208,
			"byteOffset":391692
		},
		{
			"buffer":0,
			"byteLength":1248,
			"byteOffset":391900
		},
		{
			"buffer":0,
			"byteLength":30480,
			"byteOffset":393148,
			"target":34962
		},
		{
			"buffer":0,
			"byteLength":214,
			"byteOffset":423628
		},
		{
			"buffer":0,
			"byteLength":1284,
			"byteOffset":423844
		},
		{
			"buffer":0,
			"byteLength":30480,
			"byteOffset":425128,
			"target":34962
		},
		{
			"buffer":0,
			"byteLength":214,
			"byteOffset":455608
		},
		{
			"buffer":0,
			"byteLength":1284,
			"byteOffset":455824
		},
		{
			"buffer":0,
			"byteLength":30480,
			"byteOffset":457108,
			"target":34962
		},
		{
			"buffer":0,
			"byteLength":322,
			"byteOffset":487588
		},
		{
			"buffer":0,
			"byteLength":1932,
			"byteOffset":487912
		},
		{
			"buffer":0,
			"byteLength":30480,
			"byteOffset":489844,
			"target":34962
		},
		{
			"buffer":0,
			"byteLength":322,
			"byteOffset":520324
		},
		{
			"buffer":0,
			"byteLength":1932,
			"byteOffset":520648
		},
		{
			"buffer":0,
			"byteLength":30480,
			"byteOffset":522580,
			"target":34962
		},
		{
			"buffer":0,
			"byteLength":336,
			"byteOffset":553060
		},
		{
			"buffer":0,
			"byteLength":2016,
			"byteOffset":553396
		},
		{
			"buffer":0,
			"byteLength":30480,
			"byteOffset":555412,
			"target":34962
		},
		{
			"buffer":0,
			"byteLength":302,
			"byteOffset":585892
		},
		{
			"buffer":0,
			"byteLength":1812,
			"byteOffset":586196
		},
		{
			"buffer":0,
			"byteLength":30480,
			"byteOffset":588008,
			"target":34962
		},
		{
			"buffer":0,
			"byteLength":84,
			"byteOffset":618488
		},
		{
			"buffer":0,
			"byteLength":1008,
			"byteOffset":618572
		},
		{
			"buffer":0,
			"byteLength":30480,
			"byteOffset":619580,
			"target":34962
		},
		{
			"buffer":0,
			"byteLength":214,
			"byteOffset":650060
		},
		{
			"buffer":0,
			"byteLength":1284,
			"byteOffset":650276
		},
		{
			"buffer":0,
			"byteLength":30480,
			"byteOffset":651560,
			"target":34962
		},
		{
			"buffer":0,
			"byteLength":336,
			"byteOffset":682040
		},
		{
			"buffer":0,
			"byteLength":2016,
			"byteOffset":682376
		},
		{
			"buffer":0,
			"byteLength":30480,
			"byteOffset":684392,
			"target":34962
		}
	],
	"samplers":[
		{
			"magFilter":9729,
			"minFilter":9987
		}
	],
	"buffers":[
		{
			"byteLength":714872,
			"uri":"gnome.bin"
		}
	]
}
